<?xml version="1.0" standalone="no"?>
<!DOCTYPE svg PUBLIC "-//W3C//DTD SVG 20010904//EN"
 "http://www.w3.org/TR/2001/REC-SVG-20010904/DTD/svg10.dtd">
<svg version="1.0" xmlns="http://www.w3.org/2000/svg"
 width="902.000000pt" height="902.000000pt" viewBox="0 0 902.000000 902.000000"
 preserveAspectRatio="xMidYMid meet">
<metadata>
Created by potrace 1.14, written by Peter Selinger 2001-2017
</metadata>
<g transform="translate(0.000000,902.000000) scale(0.100000,-0.100000)"
fill="#000000" stroke="none">
<path d="M2298 8555 c-2 -2 -37 -7 -78 -11 -73 -7 -105 -11 -105 -14 0 -1 -13
-3 -30 -5 -68 -6 -316 -66 -380 -91 -22 -9 -42 -16 -45 -16 -28 -2 -248 -93
-360 -149 -111 -56 -285 -160 -346 -206 -201 -155 -227 -178 -330 -281 -82
-84 -103 -107 -149 -167 -21 -27 -46 -56 -54 -62 -8 -7 -11 -13 -5 -13 5 0 4
-4 -2 -8 -20 -13 -129 -186 -182 -289 -113 -220 -185 -435 -207 -618 -3 -27
-9 -72 -12 -100 -9 -69 -8 -536 1 -615 10 -81 16 -128 30 -230 6 -45 20 -123
31 -170 3 -14 8 -38 11 -55 8 -44 25 -118 31 -135 3 -8 7 -21 9 -29 2 -12 12
-47 19 -71 1 -3 7 -25 14 -50 7 -25 21 -70 32 -100 11 -30 22 -62 24 -70 6
-23 82 -224 101 -267 9 -21 35 -76 57 -123 22 -47 41 -87 42 -90 0 -3 21 -43
45 -90 25 -47 47 -89 49 -95 2 -5 7 -12 10 -15 3 -3 14 -21 24 -40 9 -19 26
-48 37 -65 11 -16 23 -37 27 -45 13 -30 173 -267 237 -353 36 -49 66 -91 66
-94 0 -2 6 -10 13 -17 6 -7 69 -87 139 -177 70 -90 137 -176 150 -191 13 -15
39 -46 58 -69 19 -23 40 -47 45 -53 6 -6 35 -40 65 -76 30 -36 60 -70 65 -76
6 -6 39 -44 75 -84 275 -308 669 -704 967 -970 68 -62 75 -66 66 -44 -22 59
-156 307 -220 407 -24 37 -43 71 -43 76 0 4 -9 16 -20 26 -11 10 -20 22 -20
26 0 8 -59 99 -71 109 -3 3 -21 28 -39 55 -19 28 -40 56 -47 63 -7 8 -17 22
-23 32 -5 10 -18 28 -29 41 -11 13 -102 128 -203 254 -100 127 -187 235 -192
242 -16 19 -27 32 -81 103 -27 36 -52 67 -55 70 -3 3 -30 39 -61 80 -31 41
-68 89 -83 105 -14 17 -26 33 -26 37 0 4 -6 13 -13 20 -16 16 -125 171 -228
323 -41 61 -77 112 -80 115 -10 7 -59 92 -66 113 -3 9 -9 17 -14 17 -5 0 -9 4
-9 9 0 5 -26 54 -58 108 -32 54 -61 105 -65 113 -4 8 -18 33 -32 55 -23 38
-127 245 -165 330 -9 22 -24 56 -33 75 -62 140 -170 454 -184 535 -2 11 -10
52 -19 90 -9 39 -18 84 -20 100 -3 17 -9 50 -14 75 -6 25 -12 61 -14 80 -9 79
-18 146 -22 170 -22 138 -22 627 1 691 2 8 7 32 9 54 6 48 12 79 32 165 9 36
17 72 19 81 9 43 62 185 101 266 36 78 134 239 174 285 70 83 74 82 16 -5 -36
-54 -66 -104 -66 -111 0 -8 -4 -16 -8 -18 -24 -10 -115 -246 -141 -368 -7 -30
-15 -62 -18 -70 -3 -8 -7 -28 -9 -45 -1 -16 -6 -46 -9 -65 -4 -19 -9 -51 -10
-70 -2 -19 -4 -35 -4 -35 -5 0 -11 -149 -12 -260 -1 -160 15 -378 36 -495 2
-14 9 -54 15 -90 14 -91 20 -122 26 -142 3 -10 7 -30 10 -45 2 -16 12 -57 20
-92 9 -36 17 -72 19 -80 2 -9 8 -36 15 -61 7 -25 12 -47 12 -50 0 -3 5 -14 11
-25 6 -11 12 -27 13 -35 3 -17 30 -94 44 -125 5 -11 28 -65 51 -120 59 -137
196 -404 252 -493 26 -40 47 -75 47 -78 0 -2 5 -10 11 -17 23 -26 108 -163
109 -174 0 -6 3 -13 8 -15 4 -1 32 -40 62 -85 30 -46 58 -83 62 -83 5 0 8 -6
8 -14 0 -8 3 -16 8 -18 4 -1 61 -75 127 -162 66 -88 169 -218 228 -290 181
-218 191 -229 223 -266 17 -19 39 -46 50 -59 10 -13 30 -35 44 -50 14 -14 54
-60 89 -101 35 -41 71 -82 80 -90 9 -8 28 -31 42 -50 15 -19 35 -44 46 -55 10
-11 47 -56 83 -100 36 -44 75 -91 87 -105 13 -14 23 -28 23 -31 0 -3 9 -17 21
-30 33 -39 53 -65 64 -81 6 -9 49 -72 98 -141 48 -69 87 -129 87 -133 0 -4 7
-15 16 -25 46 -51 239 -420 279 -534 10 -27 23 -63 30 -80 13 -31 66 -199 71
-224 2 -8 18 -26 36 -40 18 -14 41 -34 50 -44 10 -9 20 -17 23 -17 3 0 16 -9
28 -21 12 -11 54 -45 92 -74 39 -29 80 -61 92 -72 12 -11 34 -28 48 -39 15
-10 51 -37 80 -59 100 -76 110 -84 197 -148 68 -51 87 -61 90 -48 10 39 -2
338 -18 441 -2 14 -6 45 -9 70 -10 83 -56 273 -91 374 -58 169 -148 351 -267
540 -13 21 -146 215 -159 231 -46 60 -211 266 -229 286 -13 14 -45 50 -71 80
-26 30 -70 79 -98 109 -98 105 -265 284 -295 314 -26 27 -88 95 -266 291 -20
22 -62 69 -94 105 -32 36 -61 67 -65 70 -3 3 -21 25 -40 50 -19 25 -39 50 -45
56 -5 6 -24 29 -42 50 -17 22 -70 86 -118 144 -47 58 -109 139 -137 180 -29
41 -54 77 -57 80 -3 3 -10 13 -16 22 -5 9 -55 84 -111 165 -100 148 -184 283
-184 297 0 4 -5 12 -11 19 -29 33 -191 367 -258 534 -22 54 -45 112 -52 128
-7 17 -13 35 -15 40 -4 16 -46 138 -55 160 -8 20 -48 153 -53 177 -2 7 -5 20
-9 28 -19 53 -71 316 -82 415 -2 17 -6 50 -10 75 -10 72 -13 292 -5 346 4 27
11 72 14 99 3 28 11 70 17 95 5 25 11 52 13 60 6 29 39 134 52 167 8 18 14 35
14 38 0 12 113 225 120 225 4 0 13 14 20 30 7 17 15 30 19 30 4 0 14 13 24 28
24 41 158 174 225 224 31 24 60 47 64 53 4 5 8 6 8 1 0 -5 8 -2 18 7 23 20
188 107 204 107 7 0 -7 -12 -32 -27 -25 -15 -49 -31 -55 -35 -5 -4 -37 -28
-71 -53 -73 -53 -184 -160 -239 -230 -22 -27 -43 -51 -47 -53 -5 -2 -8 -8 -8
-13 0 -5 -15 -30 -34 -56 -68 -96 -169 -344 -191 -468 -2 -16 -7 -41 -10 -55
-9 -42 -18 -132 -19 -182 -1 -27 -4 -48 -8 -48 -4 0 -3 -11 2 -24 5 -13 7 -26
5 -28 -13 -13 2 -251 22 -358 3 -19 7 -44 8 -55 1 -11 5 -31 8 -45 3 -14 16
-70 28 -124 20 -95 76 -277 104 -341 7 -16 29 -73 50 -125 46 -116 189 -411
256 -526 27 -47 49 -90 49 -95 0 -5 5 -9 10 -9 6 0 10 -5 10 -11 0 -6 14 -31
30 -56 17 -24 30 -45 30 -47 0 -11 135 -203 185 -263 5 -7 16 -19 23 -27 6 -8
12 -18 12 -20 0 -7 189 -250 229 -296 17 -19 57 -64 89 -100 187 -212 287
-316 667 -696 232 -232 453 -457 491 -499 38 -43 80 -90 94 -105 48 -53 203
-246 238 -296 42 -63 133 -191 142 -201 5 -7 10 -15 10 -18 0 -3 16 -31 35
-61 50 -77 167 -304 158 -304 -4 0 -3 -4 2 -8 29 -21 142 -378 165 -522 5 -36
12 -74 14 -85 2 -11 7 -40 10 -65 3 -25 8 -54 10 -66 6 -30 19 -270 18 -339 0
-33 -1 -100 -2 -150 -1 -49 -1 -95 -1 -102 1 -7 70 -57 154 -112 83 -55 157
-104 163 -108 5 -4 19 -13 30 -19 10 -6 40 -23 65 -37 29 -17 46 -23 46 -14 0
6 3 26 6 42 3 17 9 53 13 80 4 28 8 52 9 55 1 3 5 34 9 70 5 36 10 72 11 80 2
8 6 49 10 90 4 41 9 84 11 95 12 56 4 461 -10 545 -2 14 -7 45 -10 70 -3 25
-9 63 -13 85 -3 22 -7 47 -9 55 -1 8 -16 69 -33 135 -27 103 -44 153 -91 270
-17 42 -81 173 -88 179 -4 4 -7 11 -7 15 0 5 -26 50 -57 100 -32 51 -58 97
-58 102 0 5 -4 9 -10 9 -5 0 -10 4 -10 9 0 11 -126 190 -163 231 -7 8 -24 31
-37 50 -14 19 -34 45 -47 57 -12 13 -34 39 -50 60 -61 80 -192 217 -580 609
-319 321 -428 434 -514 529 -47 53 -72 82 -170 195 -82 96 -118 137 -144 164
-16 18 -43 50 -60 71 -16 22 -34 45 -40 50 -55 51 -274 365 -389 560 -55 93
-240 450 -241 465 -1 3 -6 14 -12 25 -17 31 -71 168 -118 300 -54 154 -100
316 -126 447 -22 111 -24 120 -36 218 -10 84 -10 439 1 510 5 30 10 64 11 75
1 11 3 20 4 20 1 0 4 11 6 25 6 32 13 65 15 65 1 0 3 11 6 25 4 25 30 112 41
140 3 8 7 21 9 28 1 7 25 59 53 115 130 265 360 476 632 581 122 46 106 41
144 50 17 4 37 10 45 12 8 3 17 6 20 6 3 1 21 5 40 10 19 5 48 11 65 14 16 2
39 6 50 9 11 3 6 -2 -12 -10 -17 -8 -42 -16 -55 -19 -13 -2 -40 -11 -61 -19
-20 -9 -37 -13 -37 -10 0 3 -6 0 -13 -6 -8 -6 -17 -8 -20 -4 -4 3 -7 1 -7 -5
0 -7 -3 -11 -7 -10 -12 4 -123 -43 -176 -74 -26 -15 -50 -28 -53 -28 -6 0
-102 -67 -154 -108 -63 -51 -153 -145 -211 -222 -51 -68 -143 -243 -155 -295
-4 -16 -10 -34 -14 -40 -4 -5 -8 -17 -8 -25 0 -8 -7 -40 -16 -70 -29 -104 -41
-233 -40 -430 1 -175 9 -280 30 -405 2 -16 7 -43 9 -59 2 -15 7 -35 9 -45 3
-9 8 -31 11 -49 3 -18 13 -58 21 -90 9 -31 19 -72 21 -90 3 -18 9 -35 14 -38
5 -3 9 -15 9 -28 0 -12 3 -26 7 -30 4 -3 8 -14 9 -22 1 -8 14 -45 29 -82 15
-37 28 -74 30 -82 5 -24 74 -175 138 -300 75 -146 199 -348 274 -445 36 -46
37 -48 63 -85 13 -19 27 -37 30 -40 3 -3 28 -34 55 -70 58 -75 73 -94 99 -123
10 -12 30 -38 45 -57 14 -19 28 -37 32 -40 3 -3 23 -27 45 -55 69 -88 60 -77
269 -300 72 -76 171 -178 220 -226 203 -197 284 -275 364 -348 47 -42 106 -96
132 -121 26 -25 87 -81 135 -125 119 -107 396 -385 464 -464 30 -35 65 -76 78
-89 13 -14 35 -41 50 -60 15 -19 32 -40 37 -46 57 -63 255 -347 255 -365 0 -5
4 -11 9 -13 12 -4 161 -286 161 -304 0 -3 11 -29 24 -58 13 -29 34 -86 46
-127 11 -41 23 -78 24 -84 2 -5 4 -12 4 -15 1 -3 10 -30 20 -60 11 -30 20 -59
20 -65 2 -13 16 -99 17 -105 6 -22 18 -88 20 -104 1 -12 3 -21 4 -21 4 0 17
-122 28 -255 11 -157 7 -382 -11 -563 -2 -21 -1 -37 2 -35 4 2 21 10 37 18 17
8 32 17 35 21 3 3 37 26 75 50 39 24 75 47 80 51 6 5 73 50 150 100 77 51 142
95 145 98 3 3 32 23 64 45 33 22 64 44 71 50 6 5 18 15 27 20 61 38 118 80
118 86 0 4 9 11 20 14 11 3 26 12 32 19 7 7 56 43 108 81 52 38 100 74 107 80
22 18 37 30 118 92 413 318 979 833 1285 1172 36 40 81 89 100 110 61 66 124
138 160 182 19 24 44 53 55 64 11 12 33 39 49 61 17 21 33 41 36 44 33 27 220
271 220 287 1 4 14 24 30 43 17 19 30 40 30 47 0 7 4 13 8 13 5 0 15 12 23 28
7 15 23 41 35 57 12 17 31 48 43 70 12 22 34 60 49 85 29 47 69 119 142 255
24 44 47 84 51 90 5 5 9 17 9 26 0 10 4 19 8 21 9 3 64 114 130 258 31 70 141
351 147 379 4 15 59 186 72 221 4 8 7 21 9 29 1 8 9 35 18 60 25 77 44 156 76
306 11 55 25 116 30 135 5 19 11 46 14 60 2 14 11 63 20 110 30 160 40 282 40
510 1 96 -2 209 -7 250 -4 41 -8 82 -8 90 -1 8 -6 35 -11 60 -5 25 -12 56 -14
70 -6 32 -43 159 -54 185 -4 11 -18 49 -31 85 -35 100 -128 301 -181 390 -12
19 -26 44 -32 55 -55 98 -150 221 -232 300 -97 94 -105 101 -209 178 -49 37
-95 72 -102 77 -7 6 -17 10 -23 10 -5 0 -10 5 -10 10 0 6 -4 10 -9 10 -5 0
-39 18 -75 40 -122 74 -291 155 -451 215 -87 33 -260 90 -305 100 -8 2 -15 4
-15 5 0 2 -18 6 -64 15 -19 3 -38 8 -43 11 -5 3 -24 8 -41 11 -18 2 -57 11
-87 18 -30 8 -77 17 -105 21 -27 3 -52 8 -55 9 -3 2 -33 6 -65 10 -33 4 -71 8
-85 11 -14 2 -44 7 -66 10 -23 2 -53 7 -65 9 -13 3 -63 8 -110 11 -91 7 -127
-3 -166 -45 -26 -28 -78 -136 -124 -256 -29 -75 -125 -276 -152 -320 -77 -122
-121 -191 -127 -195 -3 -3 -19 -23 -35 -46 -75 -104 -256 -293 -370 -389 -135
-112 -169 -167 -170 -275 0 -55 5 -76 33 -131 59 -117 152 -194 248 -206 77
-9 90 -1 98 59 9 76 66 220 102 256 8 7 14 17 14 20 0 4 10 18 23 32 62 69
143 176 192 255 31 49 136 226 154 260 9 17 18 32 21 35 3 3 25 45 50 94 55
110 104 198 95 171 -4 -11 -9 -31 -11 -44 -3 -14 -7 -28 -10 -33 -3 -4 -11
-31 -19 -60 -7 -29 -19 -66 -26 -83 -7 -16 -13 -32 -14 -35 -15 -59 -29 -94
-104 -253 -59 -125 -157 -287 -173 -287 -4 0 -8 -4 -8 -9 0 -5 -18 -29 -40
-53 -125 -133 -143 -327 -44 -470 61 -87 184 -170 298 -200 59 -15 68 -34 68
-133 0 -82 17 -122 75 -176 41 -39 186 -139 201 -139 5 0 15 -7 22 -15 6 -8
15 -14 18 -13 4 1 32 -11 62 -25 30 -15 62 -27 71 -27 9 0 19 -3 23 -7 14 -15
109 -31 178 -31 134 0 259 52 360 151 36 34 72 73 81 87 11 16 17 19 18 10 4
-92 22 -128 94 -192 69 -60 247 -168 278 -168 3 0 18 -5 34 -12 15 -6 33 -12
38 -13 38 -9 95 -26 95 -29 0 -5 -130 2 -170 9 -145 25 -249 84 -313 175 -20
28 -24 25 -63 -50 -16 -30 -32 -56 -36 -58 -5 -2 -8 -8 -8 -14 0 -5 -16 -37
-36 -71 -34 -57 -72 -124 -98 -172 -6 -11 -13 -22 -16 -25 -3 -3 -23 -34 -44
-70 -174 -288 -336 -491 -498 -622 -22 -18 -48 -40 -57 -49 -9 -9 -43 -36 -76
-60 -33 -24 -62 -46 -65 -50 -3 -3 -54 -39 -115 -80 -60 -41 -111 -77 -113
-81 -2 -5 -7 -8 -12 -8 -5 0 -94 -54 -199 -120 -105 -66 -195 -120 -201 -120
-5 0 -10 -4 -10 -9 0 -5 -9 -13 -20 -16 -11 -3 -26 -12 -32 -18 -7 -7 -47 -32
-88 -57 -41 -25 -81 -50 -88 -57 -8 -7 -23 -18 -35 -24 -11 -7 -26 -16 -31
-20 -6 -5 -83 -63 -171 -128 -88 -66 -172 -130 -187 -143 -15 -13 -42 -34 -60
-48 -18 -14 -40 -33 -50 -42 -10 -10 -20 -18 -23 -18 -2 0 -15 -10 -27 -22
-13 -13 -48 -43 -77 -68 -53 -45 -181 -162 -210 -191 -15 -14 -24 -7 -104 73
-49 49 -123 115 -165 146 -43 31 -82 62 -88 67 -6 6 -30 26 -54 45 -349 278
-698 613 -1024 980 -154 172 -476 579 -476 599 0 5 -4 11 -8 13 -4 2 -23 26
-42 53 -19 28 -37 52 -41 55 -14 13 -169 250 -169 260 0 5 -3 10 -8 10 -4 0
-12 9 -17 19 -6 10 -49 84 -96 162 -160 267 -242 427 -324 633 -19 49 -37 98
-40 110 -2 12 -14 53 -25 91 -12 39 -23 81 -26 95 -26 140 -23 117 -28 275 -2
117 6 186 36 290 8 28 17 57 19 65 2 8 6 17 9 20 3 3 17 27 30 53 26 50 124
157 200 218 116 93 313 179 445 196 69 8 218 7 267 -2 18 -3 47 -8 63 -11 34
-6 137 -37 180 -55 17 -7 32 -13 35 -14 25 -9 53 -21 95 -42 l50 -26 -39 41
c-42 44 -187 152 -204 152 -6 0 -12 3 -14 8 -6 13 -131 70 -223 102 l-90 31
105 -6 c58 -3 114 -8 125 -10 11 -3 38 -7 59 -10 36 -5 153 -29 201 -41 11 -3
25 -6 30 -7 6 -2 16 -6 23 -10 6 -5 12 -6 12 -3 0 3 16 -2 35 -10 19 -8 35
-11 35 -8 0 4 6 2 13 -4 6 -6 16 -10 20 -10 8 0 92 -32 157 -59 81 -34 257
-127 323 -169 66 -43 69 -44 52 -17 -83 131 -282 312 -439 403 -31 17 -56 33
-56 35 0 4 5 3 80 -16 25 -6 52 -12 60 -14 38 -9 265 -90 355 -127 201 -84
404 -201 562 -325 52 -41 100 -72 105 -71 6 2 -41 54 -103 115 -120 117 -135
131 -219 203 -80 68 -86 74 -110 90 -13 8 -30 22 -39 31 -23 22 -174 129 -261
184 -117 74 -125 79 -130 78 -3 -1 -12 4 -20 12 -38 33 -379 189 -440 202 -17
3 -30 9 -30 13 0 4 -12 10 -27 13 -16 3 -77 19 -138 36 -60 17 -135 36 -165
41 -30 6 -66 13 -80 16 -14 3 -43 7 -65 9 -22 3 -51 7 -65 11 -27 6 -466 15
-472 9z m386 -273 c2 -4 -5 -9 -17 -9 -17 -2 -19 0 -7 7 18 12 18 12 24 2z
m4015 -767 c-22 -47 -42 -93 -44 -103 -2 -9 -9 -39 -15 -67 -17 -74 -20 -87
-26 -125 -2 -19 -7 -46 -9 -60 -3 -14 -8 -43 -11 -65 -3 -22 -7 -42 -9 -45 -2
-3 -6 -25 -10 -50 -4 -24 -11 -52 -16 -62 -5 -10 -7 -18 -5 -18 9 0 -45 -142
-71 -190 -14 -25 -41 -73 -60 -107 -19 -35 -32 -63 -28 -63 3 0 3 -6 -2 -12
-9 -16 -12 -32 -14 -78 -4 -77 27 -155 89 -222 83 -90 272 -140 394 -104 108
31 174 112 204 246 9 41 21 83 26 93 7 13 5 17 -9 17 -42 -1 -146 -29 -154
-42 -5 -7 -19 -28 -31 -47 -20 -32 -78 -97 -78 -87 0 2 13 31 30 63 39 77 79
212 84 285 2 32 6 62 10 65 3 4 6 2 7 -3 5 -56 8 -77 12 -80 3 -3 1 -21 -3
-40 -7 -29 -5 -37 15 -53 25 -19 43 -20 108 -6 30 6 42 15 57 44 26 51 107
143 115 131 4 -6 2 -17 -5 -24 -6 -8 -13 -22 -15 -32 -3 -11 -11 -44 -18 -74
-25 -101 -9 -214 45 -308 33 -58 145 -175 159 -166 5 3 9 2 9 -3 0 -4 17 -9
38 -9 20 -1 60 -4 87 -8 67 -9 204 -9 290 0 79 8 110 12 110 14 0 2 9 4 55 13
37 8 93 29 108 40 6 5 12 7 12 3 0 -7 85 37 135 69 17 11 58 48 93 83 34 34
62 60 62 56 0 -17 -54 -116 -76 -139 -13 -14 -24 -29 -24 -33 -1 -8 -103 -91
-134 -109 -64 -36 -166 -78 -220 -89 -140 -31 -315 -44 -419 -31 -63 7 -105
33 -140 85 -16 23 -33 42 -39 42 -12 0 -105 57 -126 77 -7 7 -21 18 -30 25
-21 16 -66 77 -76 102 -5 16 -12 8 -35 -40 -92 -193 -309 -271 -514 -186 -50
21 -136 81 -177 123 -22 23 -54 71 -72 107 -26 55 -31 79 -32 142 -1 67 3 84
38 160 22 47 46 110 53 140 29 111 32 125 37 150 3 14 14 70 25 125 11 55 27
121 35 148 8 26 15 50 15 52 11 41 68 172 81 185 3 3 12 17 20 32 14 25 118
148 126 148 1 0 -15 -38 -37 -85z"/>
<path d="M6054 8426 c-94 -30 -233 -162 -304 -288 -67 -121 -189 -223 -366
-304 -43 -20 -90 -41 -104 -48 -52 -24 -112 -94 -127 -150 -21 -74 12 -253 53
-287 8 -6 14 -16 14 -21 0 -13 70 -78 84 -78 6 0 30 17 52 38 23 20 50 44 60
52 62 50 153 126 174 146 14 13 34 31 46 41 16 15 66 74 133 159 5 5 14 21 21
35 7 13 16 26 20 29 12 9 170 297 175 320 1 3 8 21 17 40 8 19 25 60 38 90 12
30 29 69 36 87 8 17 14 37 14 45 0 8 4 18 9 24 4 5 13 23 19 41 8 26 8 33 -5
37 -8 3 -15 6 -16 5 -1 0 -21 -6 -43 -13z"/>
<path d="M5521 6500 c-31 -45 -34 -57 -34 -120 0 -71 1 -77 44 -165 31 -64 40
-76 124 -160 167 -167 251 -205 362 -164 57 22 118 77 139 126 33 76 -16 160
-126 215 -25 13 -47 25 -50 29 -3 3 -21 15 -40 26 -63 39 -132 127 -160 204
-13 35 -14 36 -48 28 -20 -4 -38 -6 -42 -4 -3 2 -25 6 -50 10 -24 4 -52 11
-62 16 -23 12 -19 15 -57 -41z"/>
</g>
</svg>
